<!DOCTYPE svg PUBLIC "-//W3C//DTD SVG 1.1//EN" "http://www.w3.org/Graphics/SVG/1.1/DTD/svg11.dtd">
<!-- Uploaded to: SVG Repo, www.svgrepo.com, Transformed by: SVG Repo Mixer Tools -->
<svg width="800px" height="800px" viewBox="0 0 36 36" xmlns="http://www.w3.org/2000/svg" xmlns:xlink="http://www.w3.org/1999/xlink" aria-hidden="true" role="img" class="iconify iconify--twemoji" preserveAspectRatio="xMidYMid meet" fill="#000000">
<g id="SVGRepo_bgCarrier" stroke-width="0"/>
<g id="SVGRepo_tracerCarrier" stroke-linecap="round" stroke-linejoin="round"/>
<g id="SVGRepo_iconCarrier">
<path fill="#990f16" d="M0 29a4 4 0 0 0 4 4h24a4 4 0 0 0 4-4V12a4 4 0 0 0-4-4h-9c-3.562 0-3-5-8.438-5H4a4 4 0 0 0-4 4v22z"/>
<path fill="#fb3640" d="M30 10h-6.562C18 10 18.562 15 15 15H6a4 4 0 0 0-4 4v10a1 1 0 1 1-2 0a4 4 0 0 0 4 4h26a4 4 0 0 0 4-4V14a4 4 0 0 0-4-4z"/>
</g>
</svg>